v -0.394290 -0.542700 -0.335410
v -0.394290 -0.542700 -0.335410
v -0.394290 -0.542700 -0.335410
v -0.394290 -0.542700 -0.335410
v -0.637980 0.207290 -0.335410
v -0.637980 0.207290 -0.335410
v -0.637980 0.207290 -0.335410
v -0.637980 0.207290 -0.335410
v 0.000000 0.000000 -0.750000
v 0.000000 0.000000 -0.750000
v 0.000000 0.000000 -0.750000
v 0.000000 0.000000 -0.750000
v 0.000000 0.000000 -0.750000
v -0.394290 -0.542700 -0.335410
v -0.637980 0.207290 -0.335410
v 0.000000 0.670818 -0.335411
v 0.637980 0.207290 -0.335411
v 0.394290 -0.542700 -0.335411
v -0.637980 -0.207289 0.335411
v -0.394290 0.542700 0.335411
v 0.394290 0.542700 0.335410
v 0.637980 -0.207289 0.335410
v -0.000000 -0.670818 0.335411
v 0.000000 0.000000 0.750000
v 0.394290 -0.542700 -0.335411
v 0.394290 -0.542700 -0.335411
v 0.394290 -0.542700 -0.335411
v 0.394290 -0.542700 -0.335411
v 0.000000 0.670818 -0.335411
v 0.000000 0.670818 -0.335411
v 0.000000 0.670818 -0.335411
v 0.000000 0.670818 -0.335411
v 0.637980 0.207290 -0.335411
v 0.637980 0.207290 -0.335411
v 0.637980 0.207290 -0.335411
v 0.637980 0.207290 -0.335411
v -0.000000 -0.670818 0.335411
v -0.000000 -0.670818 0.335411
v -0.000000 -0.670818 0.335411
v -0.000000 -0.670818 0.335411
v -0.637980 -0.207289 0.335411
v -0.637980 -0.207289 0.335411
v -0.637980 -0.207289 0.335411
v -0.637980 -0.207289 0.335411
v -0.394290 0.542700 0.335411
v -0.394290 0.542700 0.335411
v -0.394290 0.542700 0.335411
v -0.394290 0.542700 0.335411
v 0.394290 0.542700 0.335410
v 0.394290 0.542700 0.335410
v 0.394290 0.542700 0.335410
v 0.394290 0.542700 0.335410
v 0.637980 -0.207289 0.335410
v 0.637980 -0.207289 0.335410
v 0.637980 -0.207289 0.335410
v 0.637980 -0.207289 0.335410
v 0.000000 0.000000 0.750000
v 0.000000 0.000000 0.750000
v 0.000000 0.000000 0.750000
v 0.000000 0.000000 0.750000
vn -0.5774 -0.1876 -0.7947
vn -0.0000 -0.6071 -0.7947
vn -0.3568 0.4911 -0.7947
vn 0.3568 0.4911 -0.7947
vn 0.5774 -0.1876 -0.7947
vn -0.0000 -0.9822 -0.1876
vn -0.9342 -0.3035 -0.1876
vn -0.5774 0.7947 -0.1876
vn 0.5774 0.7947 -0.1876
vn 0.9342 -0.3035 -0.1876
vn -0.5774 -0.7946 0.1876
vn -0.9342 0.3035 0.1876
vn -0.0000 0.9822 0.1876
vn 0.9342 0.3035 0.1876
vn 0.5774 -0.7946 0.1876
vn -0.3568 -0.4911 0.7947
vn -0.5774 0.1876 0.7947
vn -0.0000 0.6071 0.7947
vn 0.5774 0.1876 0.7947
vn 0.3568 -0.4911 0.7947
vt 0.999997 0.115469
vt 0.799998 0.230939
vt 0.799998 0.000000
vt 0.200001 0.577355
vt 0.399999 0.461883
vt 0.399999 0.692822
vt 0.400001 0.923763
vt 0.400001 0.692823
vt 0.600002 0.808292
vt 0.200000 0.808292
vt 0.000000 0.923764
vt 0.000000 0.692823
vt 0.800001 0.692823
vt 0.800001 0.923763
vt 0.600002 0.808293
vt 0.399999 0.346408
vt 0.599997 0.230942
vt 0.599997 0.461883
vt 0.400001 0.923763
vt 0.200001 0.808296
vt 0.400001 0.692823
vt 0.000000 0.230942
vt 0.200001 0.346411
vt 0.000000 0.461883
vt 0.000000 0.577351
vt 0.200001 0.461883
vt 0.200001 0.692823
vt 0.999996 0.230942
vt 0.999996 0.461880
vt 0.799995 0.346413
vt 0.600000 0.461883
vt 0.600000 0.692823
vt 0.399999 0.577355
vt 0.799999 0.577352
vt 1.000000 0.461884
vt 1.000000 0.692823
vt 0.799995 0.461882
vt 0.599997 0.346408
vt 0.799995 0.230942
vt 0.399999 -0.000000
vt 0.399999 0.230942
vt 0.200000 0.115472
vt 0.200000 -0.000000
vt 0.200000 0.230942
vt 0.000000 0.115472
vt 0.399999 0.115472
vt 0.599998 -0.000000
vt 0.599998 0.230941
vt 0.800001 0.923762
vt 0.800001 0.692823
vt 1.000000 0.808293
vt 0.399998 0.461881
vt 0.200000 0.346414
vt 0.399998 0.230942
vt 0.599997 0.461883
vt 0.799996 0.577351
vt 0.599997 0.692822
vt 0.599998 0.230940
vt 0.599998 -0.000000
vt 0.799998 0.115468
s 0
f 12/1/1 4/2/1 8/3/1
f 3/4/2 11/5/2 25/6/2
f 10/7/3 7/8/3 29/9/3
f 9/10/4 30/11/4 33/12/4
f 13/13/5 34/14/5 26/15/5
f 2/16/6 27/17/6 37/18/6
f 6/19/7 1/20/7 41/21/7
f 31/22/8 5/23/8 45/24/8
f 35/25/9 32/26/9 49/27/9
f 28/28/10 36/29/10 53/30/10
f 14/31/11 38/32/11 42/33/11
f 15/34/12 43/35/12 46/36/12
f 16/37/13 47/38/13 50/39/13
f 17/40/14 51/41/14 54/42/14
f 18/43/15 55/44/15 39/45/15
f 44/46/16 40/47/16 57/48/16
f 48/49/17 19/50/17 58/51/17
f 52/52/18 20/53/18 59/54/18
f 56/55/19 21/56/19 60/57/19
f 23/58/20 22/59/20 24/60/20
